<svg xmlns="http://www.w3.org/2000/svg" width="18" height="18" viewBox="0 0 24 24" fill="currentColor"><path d="M16.365 1.43a5.5 5.5 0 0 1-1.334 3.987A4.89 4.89 0 0 1 11.36 7.1a5.67 5.67 0 0 1 1.24-4.06A5.3 5.3 0 0 1 16.365 1.43ZM21.7 17.34c-.4.92-.88 1.77-1.45 2.56-.76 1.08-1.38 1.83-1.86 2.23-.74.68-1.53 1.03-2.36 1.05-.6 0-1.32-.17-2.16-.52-.85-.35-1.63-.52-2.35-.52-.75 0-1.55.17-2.41.52-.86.35-1.55.53-2.08.54-.81.04-1.62-.32-2.43-1.07-.52-.45-1.17-1.16-1.95-2.13-.84-1.03-1.53-2.23-2.06-3.59C-.02 14.82-.1 13.22.42 11.79a7 7 0 0 1 2.16-3.05 5.97 5.97 0 0 1 3.78-1.32c.74 0 1.7.2 2.87.6 1.16.4 1.91.61 2.26.61.27 0 1.1-.26 2.47-.79 1.32-.5 2.44-.71 3.36-.63 2.48.2 4.34 1.19 5.56 2.96-2.2 1.33-3.3 3.2-3.28 5.6.02 1.86.7 3.4 2.06 4.64ZM12.6 7.42c.41-.49.87-.88 1.41-1.17.62-.33 1.28-.5 2-.52.05.78-.14 1.52-.56 2.19-.39.63-.91 1.15-1.57 1.54-.66.38-1.36.58-2.1.6-.06-.8.21-1.5.82-2.14Z"/></svg>
