<svg xmlns="http://www.w3.org/2000/svg" width="18" height="18" viewBox="0 0 48 48"><path fill="#FFC107" d="M43.6 20.5H42V20H24v8h11.3c-1.7 4.7-6.2 8-11.3 8c-6.9 0-12.5-5.6-12.5-12.5S17.1 11 24 11c3.2 0 6.2 1.2 8.5 3.2l5.7-5.7C34.5 4.9 29.5 3 24 3C12.4 3 3 12.4 3 24s9.4 21 21 21s21-9.4 21-21c0-1.2-.1-2.2-.4-3.5z"/><path fill="#FF3D00" d="M6.3 14.7l6.6 4.8C14.8 16.3 19 13 24 13c3.2 0 6.2 1.2 8.5 3.2l5.7-5.7C34.5 4.9 29.5 3 24 3C16.1 3 9.1 7.2 6.3 14.7z"/><path fill="#4CAF50" d="M24 45c5.4 0 10.3-2.1 13.9-5.5l-6.4-5.2C29.6 35.9 27 37 24 37c-5 0-9.2-3.2-10.9-7.6l-6.7 5.1C9.1 40.8 15.9 45 24 45z"/><path fill="#1976D2" d="M43.6 20.5H42V20H24v8h11.3c-1.4 3.8-5 6.5-9.3 6.5c-5 0-9.2-3.2-10.9-7.6l-6.7 5.1C9.1 40.8 15.9 45 24 45c12.1 0 21-9.4 21-21c0-1.2-.1-2.2-.4-3.5z"/></svg>
